<svg xmlns="http://www.w3.org/2000/svg" viewBox="0 0 600 800">
  <rect width="600" height="800" fill="#0a0a0a"/>
  <g stroke="#222" stroke-width="1">
    <path d="M0 100H600M0 200H600M0 300H600M0 400H600M0 500H600M0 600H600M0 700H600"/>
    <path d="M100 0V800M200 0V800M300 0V800M400 0V800M500 0V800"/>
  </g>
  <g stroke="#555" stroke-width="1.5" fill="none">
    <path d="M120 640L300 480L180 300L360 180"/>
    <path d="M300 480L470 560L480 320L360 180"/>
    <path d="M180 300L480 320"/>
    <path d="M120 640L470 560"/>
    <path d="M360 180L200 120"/>
  </g>
  <g fill="#0a0a0a" stroke="#888" stroke-width="1.5">
    <circle cx="120" cy="640" r="14"/>
    <circle cx="470" cy="560" r="18"/>
    <circle cx="180" cy="300" r="12"/>
    <circle cx="480" cy="320" r="10"/>
    <circle cx="200" cy="120" r="8"/>
  </g>
  <circle cx="300" cy="480" r="26" fill="#d4ff00"/>
  <circle cx="360" cy="180" r="16" fill="none" stroke="#d4ff00" stroke-width="2"/>
  <g fill="#666" font-family="monospace" font-size="14">
    <text x="40" y="60">agent.plan()</text>
    <text x="380" y="740">tokens/s</text>
  </g>
</svg>
