<svg xmlns="http://www.w3.org/2000/svg" viewBox="0 0 600 800">
  <rect width="600" height="800" fill="#0a0a0a"/>
  <g fill="none" stroke="#333" stroke-width="1.5">
    <circle cx="300" cy="360" r="200"/>
    <circle cx="300" cy="360" r="150"/>
  </g>
  <path d="M100 360 A200 200 0 0 1 500 360" fill="none" stroke="#444" stroke-width="1.5"/>
  <line x1="100" y1="360" x2="500" y2="360" stroke="#d4ff00" stroke-width="2"/>
  <g stroke="#666" stroke-width="2">
    <path d="M300 160V190M300 530V560M100 360H130M470 360H500"/>
    <path d="M158 218L180 240M442 218L420 240"/>
  </g>
  <path d="M240 360 L285 360 L300 380 L315 360 L360 360" fill="none" stroke="#fff" stroke-width="3"/>
  <g fill="none" stroke="#d4ff00" stroke-width="2">
    <path d="M60 680 L120 680 L150 640 L180 720 L210 660 L240 700 L300 680 L540 680"/>
  </g>
  <g fill="#666" font-family="monospace" font-size="14">
    <text x="40" y="60">EICAS · N1 98.2%</text>
    <text x="452" y="760">DO-178B</text>
  </g>
</svg>
