<?xml version="1.0" encoding="UTF-8"?><svg id="a" xmlns="http://www.w3.org/2000/svg" viewBox="0 0 67.86 33.03"><defs><style>.cls-1{fill:#09c;stroke-width:0px;}</style></defs><polygon class="cls-1" points=".43 7.59 .43 .47 .43 .39 .51 .39 67.29 .39 67.37 .39 67.37 .47 67.37 7.59 67.37 7.67 67.29 7.67 .51 7.67 .43 7.67 .43 7.59"/><polygon class="cls-1" points=".43 32.57 .43 25.47 .43 25.39 .51 25.39 67.29 25.39 67.37 25.39 67.37 25.47 67.37 32.57 67.37 32.64 67.29 32.64 .51 32.64 .43 32.64 .43 32.57"/><path class="cls-1" d="M66.09,17.57c-.28,1.1-.92,2.38-1.79,2.38-.2,0-.34-.06-.44-.2-.27-.36-.21-1.24.17-2.6.44-1.53.96-2.28,1.6-2.28.16,0,.29.07.4.2.31.41.34,1.43.07,2.49M52.7,17.61c-.33,1.43-.91,2.25-1.57,2.25-.52,0-.75-.49-.8-.59.05-.21.39-1.66.56-2.33.26-1.05.87-1.83,1.41-1.83.16,0,.3.06.39.19.19.24.35.84,0,2.32M45.91,17.57c-.28,1.1-.92,2.38-1.79,2.38-.2,0-.34-.06-.44-.2-.27-.36-.22-1.24.17-2.6.44-1.53.96-2.28,1.6-2.28.16,0,.29.07.4.2.31.41.34,1.43.07,2.49M67.24,14.83c-.38-.5-.95-.78-1.62-.78-1.24,0-2.28.71-3.48,2.39-1.02,1.42-2.29,3.2-3.22,3.2-.22,0-.39-.07-.51-.22-.29-.37-.28-1.18,0-2.35.33-1.32.96-2.25,1.54-2.25.42,0,.57.23.62.38-.17-.01-.36.04-.51.15-.2.15-.31.37-.31.64,0,.24.08.46.24.61.15.15.35.22.57.22.58,0,.98-.48.98-1.17,0-.44-.17-.86-.45-1.14-.32-.32-.76-.47-1.32-.47-1.38,0-2.6,1.18-3.2,1.89-.68.79-1.45,1.58-1.83,1.96.37-1.22.29-2.37-.23-3.11-.33-.47-.82-.73-1.38-.73-.85,0-1.42.38-1.71.65l.14-.53h-2.91l-.17.71h.81c-.38,1.23-1.41,2.37-1.9,2.86.06-.2.12-.47.15-.83.07-.92-.16-1.74-.65-2.27-.35-.38-.81-.58-1.32-.58-1.46,0-2.72.88-3.75,2.62l-.31.54c-.67,1.17-1.36,2.38-2.49,2.38-.31,0-.56-.12-.74-.36-.46-.61-.49-1.99-.06-3.51.54-1.92,1.69-3.86,2.85-3.86.2,0,.36.08.5.23.45.5.47,1.71.41,2.19v.09s.84,0,.84,0l.89-3.22h-.81l-.02.03-.33.45c-.19-.22-.78-.78-2.04-.78-1.44,0-3.98,1.55-4.84,4.87-.42,1.61-.23,3.03.51,3.99.53.69,1.31,1.08,2.15,1.08,1.41,0,2.67-1.07,3.21-1.92.08.58.45,1.92,2.11,1.92,1.48,0,3.22-1.12,5.03-3.25l-1.4,5.49h2.09l.69-2.83c.17.22.58.59,1.37.59,1.12,0,2.98-1.28,4.59-3.15-.22.93-.1,1.77.36,2.38.37.49.92.77,1.5.77,1.94,0,3.31-1.63,3.76-2.27,0,.59.18,1.15.55,1.57.4.45.97.7,1.61.7,1.71,0,3.19-1.19,3.7-2.96.36-1.23.26-2.3-.27-3"/><path class="cls-1" d="M25,17.21c-.41,1.57-.9,2.27-1.58,2.27-.15,0-.27-.06-.37-.18-.3-.39-.29-1.35.03-2.49.44-1.61,1-1.83,1.49-1.83.15,0,.28.07.38.19.28.36.29,1.1.05,2.04M8,15.71h-2.08c.81-2.74,1.77-3.95,3.19-4.01l-1.11,4.01ZM32.44,16.24c.14.14.34.22.56.22.4,0,.82-.25.82-.95,0-.35-.13-.66-.38-.91-.36-.36-.94-.56-1.64-.56-1.4,0-2.37.57-2.73,1.61-.27.77.14,1.59,1.16,2.32l.14.1c.59.42.95.67.86,1.2-.07.42-.53.73-1.09.72-.86,0-1-.45-1.02-.61.15-.07.54-.29.54-.77,0-.23-.07-.42-.21-.55-.21-.21-.51-.24-.63-.24-.28,0-.75.1-.83.75-.01.09,0,.2,0,.25-.07.09-.34.45-.78.59-.1.03-.25.02-.35-.08-.14-.14-.17-.39-.07-.73.1-.34,1.12-4.47,1.12-4.47h-2.07l-.16.56c-.16-.26-.56-.67-1.46-.67-1.39,0-2.57,1.36-3.15,2.53-.49.98-1.4,2.8-2.11,2.8-.08,0-.13-.03-.17-.08-.08-.1-.17-.39.06-1.24.19-.7,1.67-6.78,1.67-6.78h-3.54l-.19.83h1.33l-.92,3.67c-.68,2.65-1.86,3.6-2.66,3.6-.17,0-.29-.05-.36-.14-.22-.27-.07-.91.03-1.38.15-.65.61-2.53.7-2.88h1.46l.21-.85h-1.46l.5-2.06h-.8l-.02.04c-1.05,1.57-1.51,2.08-3.08,2.08h-.06l-.19.79h1.25c-.05.26-.2.96-.2.96-.69,2.61-2.01,3.69-2.57,3.69-.27,0-.42-.05-.51-.15-.14-.18-.12-.57.06-1.23.32-1.2,1.65-5.98,1.82-6.56h1.33l.25-.8h-2.84c-1.02,0-2.23.08-3.4.72-1.47.8-2.54,2.3-3.17,4.47,0,.02-.39,1.55-.74,2.69-.37,1.2-1.33,1.33-1.73,1.33-.25,0-.51-.12-.73-.33l-.13-.13v1.08h.06c.37.1.81.15,1.31.15,1.37,0,2.58-.99,3.21-1.84.51-.69.68-1.3.93-2.24l.06-.21h2.06c-.09.29-.35,1.17-.57,2-.19.71-.14,1.27.15,1.65.29.38.8.57,1.53.57s2.07-.18,2.98-1.34c.02.28.11.65.38.93.26.27.64.4,1.12.4,1.12,0,2.39-.74,3.01-1.49.01.29.09.76.4,1.09.24.26.57.39.99.39,1.25,0,2.4-1,2.93-1.82.09.54.46,1.82,1.97,1.82.97,0,1.68-.61,2.07-1.05.08.34.36,1.05,1.24,1.05.92,0,1.85-.62,2.28-1.1.39.76.84,1.1,2.34,1.1,1.43,0,2.61-.97,2.82-1.88.22-.98-.32-1.39-1.22-2.05l-.11-.08-.19-.14c-.44-.32-.83-.6-.83-1.07,0-.51.42-.74.83-.74.34,0,.53.14.61.21-.1.1-.29.32-.29.63,0,.22.08.43.23.57"/></svg>