<svg xmlns="http://www.w3.org/2000/svg" viewBox="0 0 600 800">
  <rect width="600" height="800" fill="#0a0a0a"/>
  <g fill="none" stroke="#2a2a2a" stroke-width="26">
    <path d="M-40 700 C160 660 200 500 180 380 C160 240 300 160 640 140"/>
    <path d="M-40 260 C200 300 420 420 640 400"/>
  </g>
  <g fill="none" stroke="#555" stroke-width="2" stroke-dasharray="14 12">
    <path d="M-40 700 C160 660 200 500 180 380 C160 240 300 160 640 140"/>
    <path d="M-40 260 C200 300 420 420 640 400"/>
  </g>
  <g fill="none" stroke="#d4ff00" stroke-width="3">
    <path d="M120 800 C180 620 140 480 220 400 C310 310 420 330 520 240"/>
  </g>
  <circle cx="220" cy="400" r="12" fill="#0a0a0a" stroke="#d4ff00" stroke-width="3"/>
  <circle cx="520" cy="240" r="16" fill="#d4ff00"/>
  <path d="M520 240 m-6 -2 l6 -8 6 8 -6 -3 z" fill="#0a0a0a"/>
  <g fill="#666" font-family="monospace" font-size="14">
    <text x="40" y="60">2M+ listings</text>
    <text x="440" y="760">door-to-door</text>
  </g>
</svg>
